<svg width="18" height="18" viewBox="0 0 18 18" fill="none" xmlns="http://www.w3.org/2000/svg">
<path d="M17.8301 17.0207L13.1828 12.4477C14.3997 11.1255 15.1475 9.37682 15.1475 7.45261C15.1469 3.33639 11.7565 0 7.57388 0C3.39127 0 0.000854492 3.33639 0.000854492 7.45261C0.000854492 11.5688 3.39127 14.9052 7.57388 14.9052C9.38105 14.9052 11.0386 14.2802 12.3405 13.241L17.0058 17.832C17.2332 18.056 17.6022 18.056 17.8295 17.832C18.0574 17.6081 18.0574 17.2447 17.8301 17.0207ZM7.57388 13.7586C4.03494 13.7586 1.16607 10.9353 1.16607 7.45261C1.16607 3.96991 4.03494 1.14663 7.57388 1.14663C11.1128 1.14663 13.9817 3.96991 13.9817 7.45261C13.9817 10.9353 11.1128 13.7586 7.57388 13.7586Z" fill="#6B72C4"/>
</svg>
